<?xml version="1.0" encoding="utf-8"?>
<!-- Svg Vector Icons : http://www.onlinewebfonts.com/icon -->
<!DOCTYPE svg PUBLIC "-//W3C//DTD SVG 1.1//EN" "http://www.w3.org/Graphics/SVG/1.1/DTD/svg11.dtd">
<svg version="1.1" xmlns="http://www.w3.org/2000/svg" xmlns:xlink="http://www.w3.org/1999/xlink" x="0px" y="0px" viewBox="0 0 1000 1000" enable-background="new 0 0 1000 1000" xml:space="preserve">
<metadata> Svg Vector Icons : http://www.onlinewebfonts.com/icon </metadata>
<g><path d="M500,10C229.4,10,10,229.4,10,500s219.4,490,490,490c270.6,0,490-219.4,490-490C990,229.4,770.6,10,500,10z M500,957.3C247.8,957.3,42.7,752.2,42.7,500C42.7,247.8,247.8,42.7,500,42.7c252.2,0,457.3,205.1,457.3,457.3C957.3,752.2,752.2,957.3,500,957.3z"/><path d="M287.7,328.5h424.7v32.7H287.7V328.5L287.7,328.5z"/><path d="M287.7,483.7h424.7v32.7H287.7V483.7L287.7,483.7z"/><path d="M287.7,638.8h424.7v32.7H287.7V638.8L287.7,638.8z"/></g>
</svg>